<svg viewBox="0 0 1024 1024" width="38" height="38" fill="currentColor"><path d="M21.332 512c0-270.988 219.68-490.666 490.668-490.666S1002.666 241.014 1002.666 512c0 270.988-219.678 490.666-490.666 490.666S21.334 782.988 21.334 512zM960 512c0-247.424-200.576-448-448-448S64 264.576 64 512s200.576 448 448 448 448-200.576 448-448zm-192 85.332c47.128 0 85.332-38.206 85.332-85.332S815.126 426.668 768 426.668c-47.128 0-85.332 38.204-85.332 85.332s38.206 85.332 85.332 85.332zm-256 0c47.128 0 85.332-38.206 85.332-85.332S559.126 426.668 512 426.668c-47.128 0-85.332 38.204-85.332 85.332s38.204 85.332 85.332 85.332zm-256.002 0c47.128 0 85.332-38.206 85.332-85.332s-38.204-85.332-85.332-85.332c-47.128 0-85.332 38.204-85.332 85.332s38.204 85.332 85.332 85.332z"/></svg>